<svg aria-hidden="true" style="position: absolute; width: 0; height: 0; overflow: hidden;" version="1.1" xmlns="http://www.w3.org/2000/svg" xmlns:xlink="http://www.w3.org/1999/xlink">
<defs>
<symbol id="icon-transformers" viewBox="0 0 32 32">
<title>transformers</title>
<path d="M25.115 5.265l0.045-1.455c-2.694-1.348-5.686-2.155-8.973-2.155s-6.653 0.807-9.347 2.155l0.045 1.455 9.115 5.981 9.115-5.981zM16 4.556c1.875 0 3.448 0.601 3.448 0.601l-3.448 2.317-3.448-2.317c0 0 1.573-0.601 3.448-0.601zM18.073 23.977v-7.020l0.468-6.035-2.541 1.671-2.479-1.671 0.53 6.035v7.020h4.022zM12.39 10.276l-6.789-4.526-0.045-1.761h-3.996l0.593 8.55 4.85 3.466h5.927l-0.54-5.729zM4.685 10.653l6.412 3.018 0.107 0.989-6.357-2.875-0.162-1.132zM4.415 7.582l6.358 3.071 0.161 1.069-6.411-2.955-0.108-1.185zM4.308 26.549l4.735 2.424v-9.412l-2.796-1.74v-1.078l-2.748-1.886 0.809 11.692zM13.054 24.992v-7.012l-3.071 1.562v10.186l1.384 0.861 1.886-4.598h5.496l1.886 4.598 1.446-0.861v-10.185l-3.071-1.562v7.012h-5.956zM14.168 27.070l-1.401 3.932h6.466l-1.4-3.932h-3.665zM19.071 16.004h5.927l4.85-3.466 0.593-8.55h-3.996l-0.046 1.762-6.79 4.526-0.538 5.728zM27.153 11.785l-6.421 3 0.171-1.114 6.412-3.018-0.162 1.132zM27.477 8.767l-6.412 3.018 0.162-1.132 6.358-3.071-0.108 1.185zM28.5 14.856l-2.747 1.886v1.078l-2.755 1.74v9.412l4.694-2.424 0.808-11.692z"></path>
</symbol>
<symbol id="icon-batman" viewBox="0 0 39 32">
<title>batman</title>
<path d="M19.5 4.25c-10.77 0-19.5 5.261-19.5 11.75s8.73 11.75 19.5 11.75 19.5-5.261 19.5-11.75-8.73-11.75-19.5-11.75zM30.555 23.53c0 0.062 1.951-2.357 0.39-3.981-1.874-2.124-5.116 1.056-5.116 1.056-2.562-5.059-6.424 3.145-6.424 3.145s-3.348-7.731-6.221-3.047c0.062 0-2.383-2.793-4.819-1.481-1.749 1.749 0 4.091 0 4.091-9.119-3.186-9.712-12.492 2.952-16.286-3.576 4.481 6.59 10.649 5.84-0.344l2.155 1.89c0 0 2.171-1.796 2.171-1.921-0.25 10.993 9.369 4.544 6.121 0.484 11.429 3.308 13.381 11.21 2.951 16.394z"></path>
</symbol>
<symbol id="icon-spaceinvaders" viewBox="0 0 33 32">
<title>spaceinvaders</title>
<path d="M29.963 24.982v-5.947h-2.91v5.969h-3.037v2.953h-7.048v-2.975h7.048v-2.972h-14.991v2.973l6.030 0.021v2.973h-6.051v-2.951h-3.036v-6.010h-2.911v5.947h-3.057v-9.004h2.995v-2.891h2.973v-3.057h3.057v-2.994h2.994v3.003l8.983 0.024v-3.027h2.994v3.036h3.057v2.974h2.953v2.973h3.014v8.982h-3.057zM12.019 13.005h-2.994v2.995h2.994v-2.995zM23.996 13.005h-2.994v2.995h2.994v-2.995zM5.968 4.023h3.057v2.994h-3.057v-2.994zM27.053 4.023v2.994h-3.057v-2.994h3.057z"></path>
</symbol>
<symbol id="icon-skeletor" viewBox="0 0 32 32">
<title>skeletor</title>
<path d="M19.971 14.602c0.578-0.088 1.666-0.472 2.049-0.771 0.418-0.244 0.635-0.534 0.648-0.872 0.041-0.515 0.018-1.015-0.070-1.501-0.088-0.487-0.187-1.041-0.295-1.663-1.176 1.853-2.771 3.103-4.786 3.752l-0.224 0.486c0.947 0.609 1.84 0.798 2.678 0.569v0zM13.42 13.547c-2.028-0.649-3.631-1.899-4.807-3.752-0.095 0.622-0.189 1.176-0.284 1.663s-0.115 0.986-0.061 1.501c0.027 0.352 0.243 0.642 0.649 0.872 0.306 0.252 1.511 0.723 2.028 0.771 0.838 0.229 1.73 0.040 2.678-0.568l-0.203-0.487zM14.018 17.015c-0.155 0.406-0.125 1.037 0.092 1.578h0.941v-2.978c-0.393 0.528-0.878 0.994-1.033 1.4zM16.053 18.593h0.908c0.054-0.148 0.095-0.438 0.122-0.554s0.041-0.24 0.041-0.375c0-0.365-0.079-0.696-0.235-0.994s-0.564-0.648-0.836-1.055v2.978zM26.568 8.654c0.203 0.798 0.271 1.609 0.203 2.434-0.135 1.65-0.838 3.306-2.109 4.604l1.116 2.13-1.644 1.866c-2.326-1.11-3.063 0.044-3.063 1.663v6.649h-1.047v-5.964h-0.946v5.964h-1.088v-5.964h-0.938v5.964h-1.034v-5.964h-0.938v5.964h-1.033v-5.946l-0.939-0.018v5.964h-1.090v-5.964h-0.943v5.964h-1.035v-6.649c0-1.625-0.867-2.855-3.198-1.663l-1.683-1.866 1.176-2.13c-1.271-1.298-1.951-2.951-2.1-4.613-0.075-0.833-0.014-1.647 0.182-2.445 0.997-4.056 4.496-4.698 5.182-4.807 3.905-0.541 7.818-0.541 11.737 0 0.669 0.115 4.213 0.819 5.232 4.827z"></path>
</symbol>
<symbol id="icon-reply" viewBox="0 0 32 32">
<title>reply</title>
<path d="M4.687 11.119l9.287 8.933v-5.412c2.813 0 9.973 0.062 9.973 7.426 0 3.855-2.734 7.072-6.369 7.816 5.842-0.792 10.359-5.747 10.359-11.806 0-11.256-12.026-11.352-13.963-11.352v-4.606l-9.287 9.001z"></path>
</symbol>
</defs>
</svg>
